<svg width="14" height="12" viewBox="0 0 14 12" fill="none" xmlns="http://www.w3.org/2000/svg">
<path fill-rule="evenodd" clip-rule="evenodd" d="M0.5 5.99999C0.5 5.7845 0.585603 5.57784 0.737976 5.42547C0.890349 5.27309 1.09701 5.18749 1.3125 5.18749H10.7261L7.23725 1.70024C7.08468 1.54767 6.99897 1.34075 6.99897 1.12499C6.99897 0.909229 7.08468 0.702305 7.23725 0.549739C7.38982 0.397173 7.59674 0.311462 7.8125 0.311462C8.02826 0.311462 8.23518 0.397173 8.38775 0.549739L13.2628 5.42474C13.3384 5.50021 13.3984 5.58987 13.4394 5.68858C13.4804 5.7873 13.5015 5.89312 13.5015 5.99999C13.5015 6.10686 13.4804 6.21268 13.4394 6.31139C13.3984 6.4101 13.3384 6.49976 13.2628 6.57524L8.38775 11.4502C8.23518 11.6028 8.02826 11.6885 7.8125 11.6885C7.59674 11.6885 7.38982 11.6028 7.23725 11.4502C7.08468 11.2977 6.99897 11.0907 6.99897 10.875C6.99897 10.6592 7.08468 10.4523 7.23725 10.2997L10.7261 6.81249H1.3125C1.09701 6.81249 0.890349 6.72689 0.737976 6.57451C0.585603 6.42214 0.5 6.21548 0.5 5.99999Z" fill="#FF7D44"/>
</svg>
